<?xml version="1.0" standalone="no"?>
<!DOCTYPE svg PUBLIC "-//W3C//DTD SVG 20010904//EN"
 "http://www.w3.org/TR/2001/REC-SVG-20010904/DTD/svg10.dtd">
<svg version="1.0" xmlns="http://www.w3.org/2000/svg"
 width="1024.000000pt" height="1024.000000pt" viewBox="0 0 1024.000000 1024.000000"
 preserveAspectRatio="xMidYMid meet">

<g transform="translate(0.000000,1024.000000) scale(0.100000,-0.100000)"
fill="#000000" stroke="none">
<path d="M5050 7723 c-14 -2 -95 -15 -180 -29 -618 -100 -1368 -327 -1835
-553 -77 -38 -79 -39 -43 -40 20 -1 43 -8 52 -16 13 -13 36 -7 203 59 589 231
1064 366 1623 462 247 42 217 43 593 -26 497 -90 908 -206 1417 -400 118 -45
228 -86 243 -92 22 -8 32 -7 45 5 9 8 28 17 42 19 19 2 -2 16 -90 57 -414 194
-960 364 -1560 485 -98 20 -457 76 -473 75 -7 -1 -23 -4 -37 -6z"/>
<path d="M4838 7284 c-408 -82 -753 -174 -1128 -303 -139 -47 -590 -218 -598
-226 -7 -7 -2 -437 8 -640 28 -583 102 -958 270 -1381 73 -183 187 -403 289
-556 l91 -138 228 0 229 0 -5 78 -4 78 331 318 331 318 0 268 0 268 107 101
c59 56 112 101 117 101 6 0 57 -46 113 -102 l103 -103 0 -266 0 -266 273 -259
c149 -142 300 -286 335 -318 l62 -59 0 -79 0 -78 228 0 227 1 32 42 c122 162
305 512 392 748 165 449 223 838 238 1596 l6 321 -39 17 c-130 55 -418 163
-585 220 -389 133 -677 209 -1126 299 l-262 53 -263 -53z m273 -426 c16 -42
25 -48 73 -48 l39 0 -38 -33 c-37 -32 -38 -33 -25 -71 6 -20 10 -39 8 -42 -3
-2 -19 7 -38 21 -30 22 -35 23 -61 10 -15 -8 -31 -19 -34 -25 -16 -26 -23 -5
-11 34 l14 44 -37 31 -36 30 46 0 c44 1 46 2 59 41 7 22 16 40 20 40 4 0 13
-15 21 -32z m898 -1266 c8 -4 12 -712 5 -712 -12 0 -87 72 -506 482 l-406 398
-396 -388 c-217 -214 -422 -413 -456 -442 l-60 -52 0 354 0 354 455 454 456
453 452 -449 c249 -247 454 -450 456 -452z m-1411 -846 c-57 -54 -161 -152
-233 -219 l-130 -120 -3 34 c-3 30 2 39 52 84 31 28 126 115 210 195 l155 145
0 144 c1 136 2 146 24 169 l22 24 3 -179 3 -178 -103 -99z m934 437 c16 -14
18 -33 18 -163 l0 -147 210 -197 c183 -172 210 -201 210 -227 0 -23 -3 -28
-14 -22 -8 5 -114 100 -235 213 l-221 205 0 178 c0 97 3 177 7 177 3 0 15 -7
25 -17z"/>
<path d="M7491 6864 c-1 -34 -37 -88 -52 -79 -5 4 -9 -13 -9 -37 0 -84 -20
-546 -30 -703 -42 -648 -128 -1044 -324 -1505 -56 -132 -185 -376 -250 -472
l-18 -28 60 0 61 0 110 223 c280 564 402 1055 450 1808 17 251 23 616 13 724
-5 55 -10 86 -11 69z"/>
<path d="M2714 6550 c14 -871 102 -1412 323 -1975 57 -146 232 -498 261 -526
13 -13 28 -15 64 -10 l47 6 -35 55 c-275 432 -462 1001 -528 1610 -16 146 -41
570 -52 877 -7 206 -4 193 -67 267 -18 20 -18 11 -13 -304z"/>
<path d="M3016 5942 c-4 -7 -34 -26 -67 -42 -57 -29 -59 -32 -59 -69 0 -114
54 -448 110 -686 83 -350 252 -756 426 -1022 l54 -83 85 0 c49 0 84 4 81 9 -4
5 -17 8 -31 7 -27 -3 -71 36 -60 53 3 6 1 11 -4 11 -11 0 -10 27 1 45 3 6 -27
68 -67 138 -75 131 -164 329 -242 540 -93 252 -178 654 -203 962 -12 147 -13
154 -24 137z"/>
<path d="M7186 5888 c-3 -35 -11 -115 -16 -178 -46 -493 -219 -1038 -456
-1437 -26 -43 -47 -85 -48 -93 -4 -26 -18 -50 -26 -45 -8 5 -70 -75 -70 -89 0
-3 38 -6 85 -6 l85 0 54 83 c71 110 164 288 230 439 160 367 250 725 297 1182
l12 118 -24 19 c-13 10 -45 30 -71 44 l-46 25 -6 -62z"/>
<path d="M4735 4439 c-198 -181 -376 -346 -395 -365 l-35 -36 370 7 c410 8
380 8 875 0 l355 -6 -65 63 c-115 111 -730 668 -737 668 -5 -1 -170 -149 -368
-331z"/>
<path d="M2574 3981 c-53 -23 -54 -32 -54 -359 l0 -303 25 -24 24 -25 1693 -1
c2187 -1 3378 2 3395 8 39 15 43 52 43 358 l0 297 -29 29 -29 29 -759 -1
c-728 -1 -1493 -12 -1693 -25 -52 -3 -137 -1 -188 5 -120 15 -2398 25 -2428
12z m507 -178 c39 -23 52 -61 47 -138 -3 -55 -8 -70 -31 -93 -27 -26 -31 -27
-157 -30 l-129 -4 -3 -56 -3 -57 -50 0 -50 0 -3 198 -2 197 176 0 c147 0 181
-3 205 -17z m524 2 c40 -20 55 -51 55 -116 0 -58 -18 -99 -55 -123 l-26 -17
46 -58 c25 -31 45 -60 45 -64 0 -4 -24 -7 -54 -7 l-54 0 -51 65 -51 65 -60 0
-59 0 -3 -62 -3 -63 -50 0 -50 1 -3 197 -2 197 171 0 c134 0 178 -3 204 -15z
m275 -180 l0 -195 -49 0 -48 0 -5 183 c-3 100 -3 188 -1 195 3 7 24 12 54 12
l49 0 0 -195z m328 57 l76 -132 75 135 76 135 63 0 62 0 0 -195 0 -195 -50 0
-49 0 -3 121 -3 121 -68 -121 -68 -121 -38 0 -38 0 -63 115 c-35 63 -67 115
-72 115 -4 0 -8 -52 -8 -115 l0 -115 -44 0 -43 0 -7 46 c-3 26 -6 114 -6 196
l0 149 66 -3 66 -3 76 -133z m872 98 l0 -39 -142 -3 -143 -3 -3 -32 -3 -32
123 -3 123 -3 3 -43 3 -43 -123 2 -123 1 -3 -36 -3 -36 145 0 146 0 0 -40 0
-40 -195 0 -195 0 0 195 0 195 195 0 195 0 0 -40z m730 0 l0 -39 -87 -3 -88
-3 -3 -152 -3 -153 -49 0 c-41 0 -50 3 -48 18 1 9 0 79 0 155 l-2 137 -85 0
-85 0 0 40 0 40 225 0 225 0 0 -40z m490 0 l0 -40 -150 0 -150 0 0 -35 0 -34
128 -3 127 -3 0 -40 0 -40 -127 2 -128 2 0 -40 0 -39 150 0 150 0 0 -40 0 -40
-200 0 -200 0 0 195 0 195 200 0 200 0 0 -40z m480 -157 l98 -193 -57 0 -57 0
-22 45 -22 45 -81 0 c-79 0 -81 1 -75 23 3 12 6 28 6 35 0 7 14 12 38 12 63 0
67 9 36 73 -16 32 -31 57 -34 57 -3 0 -37 -64 -75 -143 l-70 -142 -53 -3 c-28
-2 -52 1 -52 5 0 5 43 93 96 196 l96 188 64 -3 65 -3 99 -192z m374 65 c39
-71 74 -128 78 -128 4 0 40 58 80 130 l73 130 63 0 62 0 0 -195 0 -195 -50 0
-50 0 0 117 c0 73 -4 113 -9 108 -6 -6 -36 -57 -69 -115 -59 -104 -60 -105
-100 -108 l-40 -3 -53 99 c-85 162 -84 162 -84 24 l0 -117 -52 -3 -53 -3 0
196 0 196 66 -3 67 -3 71 -127z"/>
<path d="M2810 3680 l0 -60 94 0 c108 0 126 10 126 65 0 47 -20 55 -129 55
l-91 0 0 -60z"/>
<path d="M3337 3733 c-4 -3 -7 -28 -7 -55 l0 -48 103 0 c112 0 127 6 127 51 0
49 -21 59 -124 59 -51 0 -96 -3 -99 -7z"/>
<path d="M3831 3179 c45 -57 266 -255 381 -341 143 -108 345 -233 503 -313
143 -73 362 -165 391 -165 50 0 348 158 539 285 195 130 335 245 510 420 l150
150 -53 3 -54 3 -126 -123 c-199 -194 -389 -340 -625 -481 -148 -89 -315 -177
-337 -177 -26 0 -264 122 -409 209 -227 137 -476 328 -641 492 l-80 79 -91 0
-91 0 33 -41z"/>
<path d="M4123 3161 c93 -96 298 -260 457 -366 146 -97 325 -205 341 -205 4 0
20 26 35 58 16 31 30 60 31 63 2 3 -27 22 -64 42 -37 20 -106 59 -153 88 -47
28 -91 52 -97 52 -7 0 -11 2 -8 5 2 3 -47 41 -110 86 -62 44 -154 114 -203
155 l-89 75 -96 0 -97 1 53 -54z"/>
<path d="M4420 3215 c0 -8 137 -113 245 -187 105 -72 278 -174 393 -232 l52
-27 111 62 c61 34 159 94 218 133 114 76 320 236 321 249 0 4 -301 7 -670 7
-368 0 -670 -2 -670 -5z"/>
<path d="M5938 3213 c-16 -2 -28 -8 -28 -12 0 -13 -59 -71 -71 -71 -7 0 -7 6
2 17 8 9 -42 -30 -111 -86 -144 -119 -264 -204 -402 -285 l-97 -58 25 -56 c14
-32 29 -61 34 -66 17 -17 338 193 505 329 50 41 142 124 205 184 l115 110 -75
-1 c-41 -1 -87 -3 -102 -5z"/>
</g>
</svg>
