<?xml version="1.0" encoding="UTF-8"?>
<svg xmlns="http://www.w3.org/2000/svg" xmlns:xlink="http://www.w3.org/1999/xlink" width="16px" height="16px" viewBox="0 0 16 16" version="1.1">
<g id="surface1">
<path style=" stroke:none;fill-rule:nonzero;fill:rgb(0%,0%,0%);fill-opacity:1;" d="M 7.890625 3.933594 C 7.867188 3.9375 7.742188 3.957031 7.609375 3.976562 C 6.644531 4.132812 5.472656 4.488281 4.742188 4.84375 C 4.621094 4.902344 4.617188 4.902344 4.675781 4.90625 C 4.707031 4.90625 4.742188 4.917969 4.757812 4.929688 C 4.777344 4.949219 4.8125 4.941406 5.074219 4.835938 C 5.992188 4.476562 6.734375 4.265625 7.609375 4.117188 C 7.996094 4.050781 7.949219 4.046875 8.535156 4.15625 C 9.3125 4.296875 9.953125 4.476562 10.75 4.78125 C 10.933594 4.851562 11.105469 4.914062 11.128906 4.925781 C 11.164062 4.9375 11.179688 4.9375 11.199219 4.917969 C 11.214844 4.90625 11.242188 4.890625 11.265625 4.886719 C 11.296875 4.882812 11.261719 4.863281 11.125 4.796875 C 10.476562 4.496094 9.625 4.230469 8.6875 4.039062 C 8.535156 4.007812 7.972656 3.921875 7.949219 3.921875 C 7.9375 3.925781 7.914062 3.929688 7.890625 3.933594 Z M 7.890625 3.933594 "/>
<path style=" stroke:none;fill-rule:nonzero;fill:rgb(0%,0%,0%);fill-opacity:1;" d="M 7.558594 4.617188 C 6.921875 4.746094 6.382812 4.890625 5.796875 5.09375 C 5.578125 5.164062 4.875 5.433594 4.863281 5.445312 C 4.851562 5.457031 4.859375 6.128906 4.875 6.445312 C 4.917969 7.355469 5.035156 7.941406 5.296875 8.601562 C 5.410156 8.890625 5.589844 9.234375 5.75 9.472656 L 5.890625 9.6875 L 6.605469 9.6875 L 6.589844 9.445312 L 7.109375 8.945312 L 7.625 8.449219 L 7.625 7.613281 L 7.792969 7.453125 C 7.882812 7.367188 7.96875 7.296875 7.976562 7.296875 C 7.984375 7.296875 8.0625 7.367188 8.152344 7.457031 L 8.3125 7.617188 L 8.3125 8.449219 L 8.738281 8.851562 C 8.972656 9.074219 9.207031 9.300781 9.261719 9.351562 L 9.359375 9.441406 L 9.359375 9.6875 L 10.070312 9.6875 L 10.121094 9.621094 C 10.3125 9.367188 10.597656 8.820312 10.734375 8.453125 C 10.992188 7.75 11.082031 7.140625 11.105469 5.957031 L 11.113281 5.457031 L 11.054688 5.429688 C 10.851562 5.34375 10.398438 5.175781 10.140625 5.085938 C 9.53125 4.878906 9.082031 4.757812 8.378906 4.617188 L 7.96875 4.535156 Z M 7.984375 5.285156 C 8.011719 5.351562 8.023438 5.359375 8.101562 5.359375 L 8.160156 5.359375 L 8.101562 5.410156 C 8.042969 5.460938 8.042969 5.460938 8.0625 5.523438 C 8.070312 5.554688 8.078125 5.582031 8.074219 5.585938 C 8.070312 5.589844 8.046875 5.578125 8.015625 5.554688 C 7.96875 5.519531 7.960938 5.519531 7.921875 5.539062 C 7.898438 5.550781 7.871094 5.570312 7.867188 5.578125 C 7.84375 5.617188 7.832031 5.585938 7.851562 5.523438 L 7.871094 5.457031 L 7.8125 5.40625 L 7.757812 5.359375 L 7.828125 5.359375 C 7.898438 5.359375 7.902344 5.359375 7.921875 5.296875 C 7.933594 5.261719 7.945312 5.234375 7.953125 5.234375 C 7.960938 5.234375 7.972656 5.257812 7.984375 5.285156 Z M 9.390625 7.261719 C 9.402344 7.269531 9.40625 8.375 9.398438 8.375 C 9.378906 8.375 9.261719 8.261719 8.605469 7.621094 L 7.972656 7 L 7.351562 7.605469 C 7.015625 7.941406 6.695312 8.25 6.640625 8.296875 L 6.546875 8.378906 L 6.546875 7.273438 L 7.257812 6.5625 L 7.96875 5.855469 L 8.675781 6.554688 C 9.066406 6.941406 9.386719 7.257812 9.390625 7.261719 Z M 7.183594 8.585938 C 7.09375 8.667969 6.933594 8.820312 6.820312 8.925781 L 6.617188 9.113281 L 6.613281 9.0625 C 6.609375 9.015625 6.617188 9 6.695312 8.929688 C 6.742188 8.886719 6.890625 8.75 7.023438 8.625 L 7.265625 8.398438 L 7.265625 8.171875 C 7.265625 7.960938 7.265625 7.945312 7.300781 7.910156 L 7.335938 7.871094 L 7.339844 8.152344 L 7.34375 8.429688 Z M 8.644531 7.902344 C 8.667969 7.921875 8.671875 7.953125 8.671875 8.15625 L 8.671875 8.386719 L 9 8.695312 C 9.285156 8.960938 9.328125 9.007812 9.328125 9.046875 C 9.328125 9.085938 9.324219 9.09375 9.304688 9.082031 C 9.292969 9.074219 9.128906 8.925781 8.9375 8.75 L 8.59375 8.429688 L 8.59375 8.152344 C 8.59375 8 8.597656 7.875 8.605469 7.875 C 8.609375 7.875 8.628906 7.886719 8.644531 7.902344 Z M 8.644531 7.902344 "/>
<path style=" stroke:none;fill-rule:nonzero;fill:rgb(0%,0%,0%);fill-opacity:1;" d="M 11.703125 5.273438 C 11.703125 5.328125 11.648438 5.414062 11.625 5.398438 C 11.617188 5.390625 11.609375 5.417969 11.609375 5.457031 C 11.609375 5.585938 11.578125 6.308594 11.5625 6.554688 C 11.496094 7.566406 11.363281 8.1875 11.054688 8.90625 C 10.96875 9.113281 10.765625 9.492188 10.664062 9.644531 L 10.636719 9.6875 L 10.828125 9.6875 L 11 9.339844 C 11.4375 8.457031 11.625 7.691406 11.703125 6.515625 C 11.726562 6.121094 11.738281 5.550781 11.722656 5.382812 C 11.714844 5.296875 11.707031 5.25 11.703125 5.273438 Z M 11.703125 5.273438 "/>
<path style=" stroke:none;fill-rule:nonzero;fill:rgb(0%,0%,0%);fill-opacity:1;" d="M 4.242188 5.765625 C 4.261719 7.125 4.398438 7.972656 4.746094 8.851562 C 4.835938 9.078125 5.109375 9.628906 5.152344 9.671875 C 5.171875 9.695312 5.195312 9.695312 5.253906 9.6875 L 5.328125 9.679688 L 5.273438 9.59375 C 4.84375 8.917969 4.550781 8.03125 4.445312 7.078125 C 4.421875 6.851562 4.382812 6.1875 4.367188 5.707031 C 4.355469 5.386719 4.359375 5.40625 4.261719 5.289062 C 4.234375 5.257812 4.234375 5.273438 4.242188 5.765625 Z M 4.242188 5.765625 "/>
<path style=" stroke:none;fill-rule:nonzero;fill:rgb(0%,0%,0%);fill-opacity:1;" d="M 4.710938 6.714844 C 4.707031 6.726562 4.660156 6.757812 4.609375 6.78125 C 4.519531 6.828125 4.515625 6.832031 4.515625 6.890625 C 4.515625 7.066406 4.601562 7.589844 4.6875 7.960938 C 4.816406 8.507812 5.082031 9.140625 5.351562 9.558594 L 5.4375 9.6875 L 5.570312 9.6875 C 5.648438 9.6875 5.703125 9.679688 5.695312 9.671875 C 5.691406 9.664062 5.671875 9.660156 5.648438 9.664062 C 5.605469 9.667969 5.539062 9.605469 5.554688 9.578125 C 5.558594 9.570312 5.554688 9.5625 5.546875 9.5625 C 5.53125 9.5625 5.53125 9.519531 5.550781 9.492188 C 5.554688 9.484375 5.507812 9.386719 5.445312 9.277344 C 5.328125 9.070312 5.1875 8.761719 5.066406 8.433594 C 4.921875 8.039062 4.789062 7.410156 4.75 6.929688 C 4.730469 6.699219 4.730469 6.6875 4.710938 6.714844 Z M 4.710938 6.714844 "/>
<path style=" stroke:none;fill-rule:nonzero;fill:rgb(0%,0%,0%);fill-opacity:1;" d="M 11.226562 6.800781 C 11.222656 6.855469 11.210938 6.980469 11.203125 7.078125 C 11.132812 7.847656 10.859375 8.699219 10.492188 9.324219 C 10.449219 9.390625 10.417969 9.457031 10.414062 9.46875 C 10.410156 9.507812 10.386719 9.546875 10.375 9.539062 C 10.363281 9.53125 10.265625 9.65625 10.265625 9.679688 C 10.265625 9.683594 10.324219 9.6875 10.398438 9.6875 L 10.53125 9.6875 L 10.617188 9.558594 C 10.726562 9.386719 10.871094 9.109375 10.976562 8.871094 C 11.226562 8.296875 11.367188 7.738281 11.4375 7.023438 L 11.457031 6.839844 L 11.421875 6.8125 C 11.398438 6.796875 11.351562 6.765625 11.308594 6.742188 L 11.238281 6.703125 Z M 11.226562 6.800781 "/>
<path style=" stroke:none;fill-rule:nonzero;fill:rgb(0%,0%,0%);fill-opacity:1;" d="M 7.398438 9.0625 C 7.089844 9.347656 6.8125 9.605469 6.78125 9.632812 L 6.726562 9.691406 L 7.304688 9.679688 C 7.945312 9.667969 7.898438 9.667969 8.671875 9.679688 L 9.226562 9.6875 L 9.125 9.589844 C 8.945312 9.417969 7.984375 8.546875 7.972656 8.546875 C 7.964844 8.546875 7.707031 8.78125 7.398438 9.0625 Z M 7.398438 9.0625 "/>
<path style=" stroke:none;fill-rule:nonzero;fill:rgb(0%,0%,0%);fill-opacity:1;" d="M 4.023438 9.78125 C 3.9375 9.816406 3.9375 9.828125 3.9375 10.339844 L 3.9375 10.8125 L 4.015625 10.890625 L 6.660156 10.890625 C 10.078125 10.894531 11.9375 10.890625 11.964844 10.878906 C 12.023438 10.855469 12.03125 10.796875 12.03125 10.320312 L 12.03125 9.855469 L 11.984375 9.8125 L 11.941406 9.765625 L 10.753906 9.765625 C 9.617188 9.769531 8.421875 9.785156 8.109375 9.804688 C 8.027344 9.8125 7.894531 9.808594 7.816406 9.796875 C 7.628906 9.773438 4.070312 9.757812 4.023438 9.78125 Z M 4.8125 10.058594 C 4.875 10.09375 4.894531 10.152344 4.886719 10.273438 C 4.882812 10.359375 4.875 10.382812 4.839844 10.417969 C 4.796875 10.460938 4.789062 10.460938 4.59375 10.464844 L 4.390625 10.472656 L 4.386719 10.558594 L 4.382812 10.648438 L 4.226562 10.648438 L 4.21875 10.03125 L 4.492188 10.03125 C 4.722656 10.03125 4.777344 10.035156 4.8125 10.058594 Z M 5.632812 10.054688 C 5.695312 10.085938 5.71875 10.132812 5.71875 10.234375 C 5.71875 10.328125 5.691406 10.390625 5.632812 10.429688 L 5.59375 10.453125 L 5.664062 10.546875 C 5.703125 10.59375 5.734375 10.640625 5.734375 10.644531 C 5.734375 10.652344 5.695312 10.65625 5.648438 10.65625 L 5.566406 10.65625 L 5.484375 10.554688 L 5.40625 10.453125 L 5.21875 10.453125 L 5.210938 10.648438 L 5.054688 10.648438 L 5.046875 10.03125 L 5.3125 10.03125 C 5.523438 10.03125 5.59375 10.035156 5.632812 10.054688 Z M 6.0625 10.335938 L 6.0625 10.640625 L 5.910156 10.640625 L 5.902344 10.355469 C 5.898438 10.199219 5.898438 10.0625 5.902344 10.050781 C 5.90625 10.039062 5.9375 10.03125 5.984375 10.03125 L 6.0625 10.03125 Z M 6.574219 10.246094 L 6.695312 10.453125 L 6.929688 10.03125 L 7.125 10.03125 L 7.125 10.640625 L 6.96875 10.640625 L 6.964844 10.453125 L 6.960938 10.261719 L 6.855469 10.453125 L 6.75 10.640625 L 6.628906 10.640625 L 6.53125 10.460938 C 6.476562 10.363281 6.425781 10.28125 6.417969 10.28125 C 6.414062 10.28125 6.40625 10.363281 6.40625 10.460938 L 6.40625 10.640625 L 6.269531 10.640625 L 6.257812 10.570312 C 6.253906 10.527344 6.25 10.390625 6.25 10.261719 L 6.25 10.03125 L 6.351562 10.035156 L 6.457031 10.039062 Z M 7.9375 10.09375 L 7.9375 10.15625 L 7.492188 10.164062 L 7.484375 10.265625 L 7.867188 10.273438 L 7.875 10.40625 L 7.683594 10.40625 L 7.492188 10.402344 L 7.488281 10.460938 L 7.484375 10.515625 L 7.9375 10.515625 L 7.9375 10.640625 L 7.328125 10.640625 L 7.328125 10.03125 L 7.9375 10.03125 Z M 9.078125 10.09375 L 9.078125 10.15625 L 8.804688 10.164062 L 8.796875 10.640625 L 8.71875 10.640625 C 8.65625 10.640625 8.640625 10.636719 8.644531 10.613281 C 8.644531 10.597656 8.644531 10.488281 8.644531 10.371094 L 8.640625 10.15625 L 8.375 10.15625 L 8.375 10.03125 L 9.078125 10.03125 Z M 9.84375 10.09375 L 9.84375 10.15625 L 9.375 10.15625 L 9.375 10.265625 L 9.773438 10.273438 L 9.773438 10.398438 L 9.375 10.390625 L 9.375 10.515625 L 9.84375 10.515625 L 9.84375 10.640625 L 9.21875 10.640625 L 9.21875 10.03125 L 9.84375 10.03125 Z M 10.59375 10.339844 L 10.746094 10.640625 L 10.570312 10.640625 L 10.5 10.5 L 10.375 10.5 C 10.25 10.5 10.246094 10.5 10.257812 10.464844 C 10.261719 10.445312 10.265625 10.421875 10.265625 10.410156 C 10.265625 10.398438 10.289062 10.390625 10.324219 10.390625 C 10.421875 10.390625 10.429688 10.375 10.382812 10.277344 C 10.355469 10.226562 10.332031 10.1875 10.328125 10.1875 C 10.324219 10.1875 10.269531 10.289062 10.210938 10.410156 L 10.101562 10.632812 L 10.019531 10.636719 C 9.976562 10.640625 9.9375 10.636719 9.9375 10.628906 C 9.9375 10.621094 10.003906 10.484375 10.085938 10.324219 L 10.238281 10.03125 L 10.335938 10.035156 L 10.4375 10.039062 Z M 11.179688 10.238281 C 11.238281 10.347656 11.292969 10.4375 11.300781 10.4375 C 11.304688 10.4375 11.363281 10.347656 11.425781 10.234375 L 11.539062 10.03125 L 11.734375 10.03125 L 11.734375 10.640625 L 11.578125 10.640625 L 11.578125 10.457031 C 11.578125 10.34375 11.570312 10.28125 11.5625 10.289062 C 11.554688 10.296875 11.507812 10.378906 11.457031 10.46875 C 11.363281 10.632812 11.363281 10.632812 11.300781 10.636719 L 11.238281 10.640625 L 11.15625 10.488281 C 11.023438 10.234375 11.023438 10.234375 11.023438 10.449219 L 11.023438 10.632812 L 10.859375 10.640625 L 10.859375 10.03125 L 10.960938 10.035156 L 11.066406 10.039062 Z M 11.179688 10.238281 "/>
<path style=" stroke:none;fill-rule:nonzero;fill:rgb(0%,0%,0%);fill-opacity:1;" d="M 4.390625 10.25 L 4.390625 10.34375 L 4.539062 10.34375 C 4.707031 10.34375 4.734375 10.328125 4.734375 10.242188 C 4.734375 10.167969 4.703125 10.15625 4.53125 10.15625 L 4.390625 10.15625 Z M 4.390625 10.25 "/>
<path style=" stroke:none;fill-rule:nonzero;fill:rgb(0%,0%,0%);fill-opacity:1;" d="M 5.214844 10.167969 C 5.207031 10.171875 5.203125 10.210938 5.203125 10.253906 L 5.203125 10.328125 L 5.363281 10.328125 C 5.539062 10.328125 5.5625 10.320312 5.5625 10.25 C 5.5625 10.171875 5.53125 10.15625 5.367188 10.15625 C 5.289062 10.15625 5.21875 10.160156 5.214844 10.167969 Z M 5.214844 10.167969 "/>
<path style=" stroke:none;fill-rule:nonzero;fill:rgb(0%,0%,0%);fill-opacity:1;" d="M 5.984375 11.03125 C 6.054688 11.121094 6.402344 11.429688 6.582031 11.566406 C 6.804688 11.734375 7.121094 11.929688 7.367188 12.054688 C 7.589844 12.167969 7.933594 12.3125 7.976562 12.3125 C 8.054688 12.3125 8.523438 12.066406 8.820312 11.867188 C 9.125 11.664062 9.34375 11.484375 9.617188 11.210938 L 9.851562 10.976562 L 9.769531 10.972656 L 9.683594 10.96875 L 9.488281 11.160156 C 9.175781 11.460938 8.878906 11.691406 8.511719 11.910156 C 8.28125 12.050781 8.019531 12.1875 7.984375 12.1875 C 7.945312 12.1875 7.570312 11.996094 7.34375 11.859375 C 6.992188 11.648438 6.601562 11.347656 6.34375 11.09375 L 6.21875 10.96875 L 5.933594 10.96875 Z M 5.984375 11.03125 "/>
<path style=" stroke:none;fill-rule:nonzero;fill:rgb(0%,0%,0%);fill-opacity:1;" d="M 6.441406 11.0625 C 6.585938 11.210938 6.90625 11.46875 7.15625 11.632812 C 7.382812 11.785156 7.664062 11.953125 7.6875 11.953125 C 7.695312 11.953125 7.71875 11.914062 7.742188 11.863281 C 7.769531 11.8125 7.789062 11.769531 7.792969 11.765625 C 7.796875 11.757812 7.75 11.730469 7.691406 11.699219 C 7.632812 11.667969 7.527344 11.605469 7.453125 11.5625 C 7.378906 11.515625 7.3125 11.480469 7.300781 11.480469 C 7.289062 11.480469 7.285156 11.476562 7.289062 11.472656 C 7.292969 11.46875 7.214844 11.40625 7.117188 11.335938 C 7.019531 11.269531 6.875 11.160156 6.800781 11.09375 L 6.660156 10.976562 L 6.359375 10.976562 Z M 6.441406 11.0625 "/>
<path style=" stroke:none;fill-rule:nonzero;fill:rgb(0%,0%,0%);fill-opacity:1;" d="M 6.90625 10.976562 C 6.90625 10.988281 7.121094 11.152344 7.289062 11.269531 C 7.453125 11.382812 7.722656 11.539062 7.902344 11.632812 L 7.984375 11.671875 L 8.15625 11.578125 C 8.253906 11.523438 8.40625 11.429688 8.5 11.367188 C 8.675781 11.25 9 11 9 10.980469 C 9 10.972656 8.53125 10.96875 7.953125 10.96875 C 7.378906 10.96875 6.90625 10.972656 6.90625 10.976562 Z M 6.90625 10.976562 "/>
<path style=" stroke:none;fill-rule:nonzero;fill:rgb(0%,0%,0%);fill-opacity:1;" d="M 9.277344 10.980469 C 9.253906 10.984375 9.234375 10.992188 9.234375 11 C 9.234375 11.019531 9.140625 11.109375 9.125 11.109375 C 9.113281 11.109375 9.113281 11.101562 9.125 11.082031 C 9.140625 11.070312 9.0625 11.128906 8.953125 11.21875 C 8.726562 11.402344 8.539062 11.535156 8.324219 11.664062 L 8.171875 11.753906 L 8.210938 11.839844 C 8.234375 11.890625 8.257812 11.9375 8.265625 11.945312 C 8.292969 11.96875 8.792969 11.640625 9.054688 11.429688 C 9.132812 11.367188 9.277344 11.234375 9.375 11.140625 L 9.554688 10.96875 L 9.4375 10.972656 C 9.375 10.972656 9.300781 10.976562 9.277344 10.980469 Z M 9.277344 10.980469 "/>
</g>
</svg>
